# xmcd
#
# Track frame offsets: 
#        150
#        13338
#        27401
#        43314
#        60389
#        76244
#        90290
#        109532
#        125732
#        146271
#        162504
#
# Disc length: 2463 seconds
#
# Revision: 1
# Processed by: cddbd v1.5.2PL0 Copyright (c) Steve Scherf et al.
# Submitted via: ExactAudioCopyFreeDBPlugin 1.0
#
DISCID=8a099d0b
DTITLE=Ira May - The Spell
DYEAR=2014
DGENRE=Blues
TTITLE0=Bigger Plan
TTITLE1=Lonely
TTITLE2=The Spell
TTITLE3=No Doubt Feat. TY
TTITLE4=Let You Go
TTITLE5=Whatever It Takes
TTITLE6=Talking Again
TTITLE7=Mr. Right
TTITLE8=Love Me
TTITLE9=Little Princess
TTITLE10=One Day
EXTD=
EXTT0=
EXTT1=
EXTT2=
EXTT3=
EXTT4=
EXTT5=
EXTT6=
EXTT7=
EXTT8=
EXTT9=
EXTT10=
PLAYORDER=
